<svg xmlns="http://www.w3.org/2000/svg" viewBox="0 0 134.99 138.99"><defs><style>.cls-1{fill:#e2c7ac;}.cls-2{fill:#fff;}.cls-3{fill:none;stroke:#6f6f6e;stroke-linecap:round;stroke-linejoin:round;stroke-width:2px;}</style></defs><g id="Слой_2" data-name="Слой 2"><g id="OBJECTS"><rect class="cls-1" width="134.99" height="134.99"/><path class="cls-2" d="M117.2,61a18.24,18.24,0,0,0,2.25-8.67C119.45,36.5,98,23.7,71.5,23.7s-48,12.8-48,28.58A18.24,18.24,0,0,0,25.79,61a15.45,15.45,0,0,0-1.27,29.19v29a3.84,3.84,0,0,0,3.84,3.84H31L32.5,139h5.18l1.49-16.05h64.65L105.31,139h5.19L112,122.94h2.65a3.84,3.84,0,0,0,3.84-3.84v-29A15.45,15.45,0,0,0,117.2,61Z"/><path class="cls-3" d="M19.71,50.22a15.54,15.54,0,0,1-.17-1.94C19.54,32.5,41,19.7,67.5,19.7s48,12.8,48,28.58a17.7,17.7,0,0,1-.16,1.94,18.34,18.34,0,0,1-.8,3.67,3.88,3.88,0,0,1-4.18,2.49c-.5-.05-1-.07-1.51-.07A15.49,15.49,0,0,0,93.33,71.77v13.9H96a4.79,4.79,0,0,1,4.36,2.81,4.7,4.7,0,0,1,.44,2v5.88a4.7,4.7,0,0,1-.44,2A4.81,4.81,0,0,1,96,101.13H39a4.81,4.81,0,0,1-4.36-2.81,4.86,4.86,0,0,1-.44-2V90.46a4.86,4.86,0,0,1,.44-2A4.79,4.79,0,0,1,39,85.67h2.69V71.77A15.49,15.49,0,0,0,26.2,56.31a15.6,15.6,0,0,0-4.4.64,15.45,15.45,0,0,0-3.21,28.27,3.8,3.8,0,0,1,1.93,3.32V115.1a3.84,3.84,0,0,0,3.84,3.84h86.27a3.84,3.84,0,0,0,3.84-3.84V88.54a3.82,3.82,0,0,1,1.93-3.32,15.42,15.42,0,0,0,2.91-24.76"/><line class="cls-3" x1="48.71" y1="85.67" x2="86.29" y2="85.67"/><line class="cls-3" x1="77.9" y1="55.2" x2="77.9" y2="55.2"/><line class="cls-3" x1="57.09" y1="55.2" x2="57.09" y2="55.2"/><line class="cls-3" x1="57.09" y1="76.01" x2="57.09" y2="76.01"/><line class="cls-3" x1="77.9" y1="76.01" x2="77.9" y2="76.01"/></g></g></svg>